<svg xmlns="http://www.w3.org/2000/svg" width="600" height="400" viewBox="0 0 600 400">
<defs>
<style><![CDATA[
.grid{stroke:#e6e6e6;stroke-width:1}
.lbl{font-family:monospace;font-size:12px;fill:#333}
]]></style>
</defs>
<rect x="0" y="0" width="100%" height="100%" fill="#fff"/>
<line x1="0" y1="0" x2="0" y2="400" class="grid"/>
<line x1="50" y1="0" x2="50" y2="400" class="grid"/>
<line x1="100" y1="0" x2="100" y2="400" class="grid"/>
<line x1="150" y1="0" x2="150" y2="400" class="grid"/>
<line x1="200" y1="0" x2="200" y2="400" class="grid"/>
<line x1="250" y1="0" x2="250" y2="400" class="grid"/>
<line x1="300" y1="0" x2="300" y2="400" class="grid"/>
<line x1="350" y1="0" x2="350" y2="400" class="grid"/>
<line x1="400" y1="0" x2="400" y2="400" class="grid"/>
<line x1="450" y1="0" x2="450" y2="400" class="grid"/>
<line x1="500" y1="0" x2="500" y2="400" class="grid"/>
<line x1="550" y1="0" x2="550" y2="400" class="grid"/>
<line x1="600" y1="0" x2="600" y2="400" class="grid"/>
<line x1="0" y1="0" x2="600" y2="0" class="grid"/>
<line x1="0" y1="50" x2="600" y2="50" class="grid"/>
<line x1="0" y1="100" x2="600" y2="100" class="grid"/>
<line x1="0" y1="150" x2="600" y2="150" class="grid"/>
<line x1="0" y1="200" x2="600" y2="200" class="grid"/>
<line x1="0" y1="250" x2="600" y2="250" class="grid"/>
<line x1="0" y1="300" x2="600" y2="300" class="grid"/>
<line x1="0" y1="350" x2="600" y2="350" class="grid"/>
<line x1="0" y1="400" x2="600" y2="400" class="grid"/>
<rect x="0" y="0" width="600" height="400" fill="none" stroke="#ccc" stroke-width="2"/>
  <rect x="40" y="40" width="200" height="140" stroke="#444444" stroke-width="3" stroke-opacity="1.0" fill="#ffd7b5" fill-opacity="0.8"/>
  <text class="lbl" x="48" y="56">Contenedor 1</text>
  <circle cx="330" cy="140" r="80" stroke="#1a73e8" stroke-width="4" stroke-opacity="1.0" fill="#cfe8ff" fill-opacity="0.6"/>
  <text class="lbl" x="418" y="140">Sensor A</text>
  <line x1="60" y1="320" x2="540" y2="80" stroke="#ff6d00" stroke-width="5" stroke-opacity="0.9"/>
  <text class="lbl" x="308" y="200">Trayectoria</text>
</svg>
